<?xml version="1.0" encoding="UTF-8"?>
<svg version="1.1" xmlns="http://www.w3.org/2000/svg" width="500" height="500">
<path d="M0 0 C6.54171623 4.86406439 8.85117483 11.18466751 11.68701172 18.54272461 C13.97852374 24.41579776 16.67031299 29.1351649 20.78515625 33.97265625 C27.10300729 43.19724968 29.37223057 55.37847587 32.45703125 66 C32.71987915 66.89969513 32.98272705 67.79939026 33.25354004 68.72634888 C45.64453125 111.21466363 45.64453125 111.21466363 45.64453125 118.6875 C67.91953125 118.1925 67.91953125 118.1925 90.64453125 117.6875 C91.96453125 115.0475 93.28453125 112.4075 94.64453125 109.6875 C96.61459024 106.72143066 98.56971153 104.52105475 101.64453125 102.6875 C105.2789902 102.18136016 108.50684603 102.7812996 112.08203125 103.5 C113.04979492 103.66653076 114.01755859 103.83306152 115.01464844 104.00463867 C117.90244327 104.51942987 120.77200133 105.09398948 123.64453125 105.6875 C124.4432666 105.8421875 125.24200195 105.996875 126.06494141 106.15625 C135.57151433 108.02625864 144.61844069 110.66140944 151.64453125 117.6875 C153.86766513 117.89361837 156.10018619 118.00186471 158.33203125 118.0625 C174.52784857 118.88925494 188.27237873 124.77273166 201.64453125 133.6875 C201.69988037 132.58462646 201.75522949 131.48175293 201.81225586 130.34545898 C202.02163941 126.1798691 202.23264392 122.01436252 202.4440918 117.84887695 C202.53469035 116.05983614 202.62487272 114.27077419 202.71459961 112.48168945 C202.97258038 107.34081 203.23936951 102.20052471 203.51815796 97.06072998 C203.59927757 95.53734254 203.67736258 94.01378875 203.75161743 92.49005127 C204.13425355 84.63995105 204.81325581 77.25913241 206.95703125 69.6875 C207.25770508 68.51767578 207.25770508 68.51767578 207.56445312 67.32421875 C209.16899907 61.41273368 211.14014168 55.73055465 216.01953125 51.75 C219.06630702 50.51678124 221.38680736 50.46021694 224.64453125 50.6875 C226.33976776 54.40597367 226.93109317 57.42521214 227.05859375 61.5 C227.09742676 62.64452637 227.13625977 63.78905273 227.17626953 64.96826172 C227.2070459 66.19561035 227.23782227 67.42295898 227.26953125 68.6875 C227.32536377 70.59233154 227.32536377 70.59233154 227.38232422 72.53564453 C227.63150916 81.87720893 227.74442365 91.21768991 227.76953125 100.5625 C227.7742041 101.77292969 227.77887695 102.98335938 227.78369141 104.23046875 C227.77336875 109.83963937 227.51700466 115.13930642 226.64453125 120.6875 C226.25331385 125.20421421 225.95199586 129.72690732 225.64453125 134.25 C225.47786458 136.64713542 225.31119792 139.04427083 225.14453125 141.44140625 C225.06630127 142.63040527 224.98807129 143.8194043 224.9074707 145.04443359 C224.72815227 147.52891794 224.51698203 150.01125869 224.27807617 152.49072266 C224.16568604 153.71452637 224.0532959 154.93833008 223.9375 156.19921875 C223.82688232 157.29580811 223.71626465 158.39239746 223.60229492 159.5222168 C223.66338247 164.10025195 225.24609904 167.56045079 227.3203125 171.578125 C231.01708255 180.25844642 230.96401391 189.40212074 230.98046875 198.69921875 C230.98691841 200.03904859 230.99364826 201.37887711 231.00064087 202.71870422 C231.01254145 205.51489518 231.01632935 208.31096329 231.01513672 211.10717773 C231.01493425 214.64587276 231.04219347 218.18375828 231.07668114 221.72226238 C231.09920047 224.48769055 231.10296669 227.2529318 231.10191727 230.01844215 C231.10534616 231.94291301 231.12684707 233.86732555 231.14901733 235.79167175 C231.0886084 247.64986609 228.59913485 259.22617575 223.08203125 269.8125 C222.7454248 270.46863281 222.40881836 271.12476563 222.06201172 271.80078125 C211.98451114 290.55046294 194.77494974 302.79506518 174.96875 309.7421875 C167.69066412 311.81186645 160.58653435 311.85764205 153.06689453 311.90869141 C151.32995095 311.92589501 151.32995095 311.92589501 149.55791759 311.94344616 C146.36592474 311.9738082 143.17393392 311.99982866 139.98188615 312.02359033 C137.25540194 312.04450443 134.5289492 312.06861367 131.80249053 312.09259588 C122.89691144 312.1705651 113.99125759 312.23540494 105.08554888 312.29653215 C102.77537253 312.31245973 100.46519884 312.32873413 98.15502548 312.34508896 C54.47380744 312.65280274 10.7946218 312.80654689 -32.88712311 312.52129364 C-36.53076577 312.50007108 -40.17437017 312.48610578 -43.8180542 312.47418213 C-49.52145044 312.45441363 -55.2243572 312.41461514 -60.92751122 312.35875893 C-62.99114748 312.34129574 -65.05484898 312.3301074 -67.11855507 312.32600975 C-81.71830177 312.2892216 -94.43175326 310.82451613 -107.60546875 303.9375 C-108.27312256 303.59533447 -108.94077637 303.25316895 -109.62866211 302.90063477 C-115.44926925 299.82112341 -120.4877832 296.12835491 -125.35546875 291.6875 C-126.268125 290.91212891 -126.268125 290.91212891 -127.19921875 290.12109375 C-139.21513147 279.22484563 -148.54841766 260.54368758 -149.55705261 244.4763031 C-149.65221959 240.68936253 -149.68728992 236.90505331 -149.69140625 233.1171875 C-149.69785239 231.70866773 -149.70458202 230.30014923 -149.71157837 228.89163208 C-149.72349585 225.94823105 -149.72726518 223.00494686 -149.72607422 220.06152344 C-149.72587188 216.33336665 -149.75310952 212.60597942 -149.78761864 208.87800407 C-149.81012321 205.96931688 -149.81390459 203.06080762 -149.81285477 200.15204239 C-149.81628985 198.12342899 -149.83780559 196.09487112 -149.85995483 194.06637573 C-149.76464206 174.37625447 -142.50854573 157.26183284 -129.35546875 142.6875 C-128.73027344 141.98109375 -128.10507813 141.2746875 -127.4609375 140.546875 C-122.41432401 135.16107975 -116.73601546 131.34891077 -110.35546875 127.6875 C-109.55238281 127.2234375 -108.74929687 126.759375 -107.921875 126.28125 C-93.32314012 118.41854879 -79.04737422 118.02971467 -62.82006836 117.90356445 C-59.13801285 117.8747657 -55.45706153 117.81958454 -51.77539062 117.75976562 C-49.43361389 117.72766266 -47.09181671 117.69701019 -44.75 117.66796875 C-43.65009232 117.6534819 -42.55018463 117.63899506 -41.41694641 117.62406921 C-39.89341805 117.61329094 -39.89341805 117.61329094 -38.33911133 117.60229492 C-37.44646072 117.59437424 -36.55381012 117.58645355 -35.6341095 117.57829285 C-33.35546875 117.6875 -33.35546875 117.6875 -30.35546875 118.6875 C-30.70158203 117.16056519 -30.70158203 117.16056519 -31.0546875 115.6027832 C-31.95308915 111.63679989 -32.84949015 107.67036679 -33.74502563 103.70373535 C-34.15181684 101.90200195 -34.55886009 100.10032543 -34.96615601 98.29870605 C-37.22909934 88.28194782 -39.46411289 78.26087719 -41.59375 68.21484375 C-41.77034149 67.38467239 -41.94693298 66.55450104 -42.12887573 65.69917297 C-42.96646961 61.75865792 -43.79689035 57.81687155 -44.61523438 53.87231445 C-46.62967671 44.28783442 -48.82177076 34.77255556 -53.16796875 25.9375 C-54.33682167 22.73853412 -54.97453988 20.1964638 -54.375 16.796875 C-51.95507806 11.79013995 -46.8024489 8.7763174 -42.35546875 5.6875 C-41.1025 4.81544922 -41.1025 4.81544922 -39.82421875 3.92578125 C-27.19376433 -4.21430058 -13.66250551 -7.6129384 0 0 Z " fill="#CA6BE5" transform="translate(192.35546875,73.3125)"/>
<path d="M0 0 C0.1043335 0.6305127 0.20866699 1.26102539 0.31616211 1.91064453 C2.80485187 16.60036972 6.20274325 30.73485103 10.63061523 44.95922852 C13.00720063 52.6150351 15.14584086 60.26439514 17 68.0625 C19.4252823 78.19830125 22.45095666 88.08534005 25.61767578 98.01196289 C28.17810661 106.1157104 30.3648242 114.24470022 32.375 122.5 C38.85458787 150.590603 38.85458787 150.590603 52.75 174.8125 C56.05120563 176.55480297 59.48307605 177.76554041 63 179 C64.31348243 179.49741346 65.62599787 179.99738841 66.9375 180.5 C69.8483107 181.60231885 72.78089062 182.56699018 75.75 183.5 C79.0490785 184.57149558 81.2362853 185.90338885 84 188 C86.80764728 188.77426109 86.80764728 188.77426109 90 189 C90.98419922 189.11408203 90.98419922 189.11408203 91.98828125 189.23046875 C95.75636319 189.49302813 97.62537471 189.29039187 100.63525391 186.95727539 C103.40148262 183.49791875 104.14213958 180.57075476 104.7734375 176.30859375 C104.90264084 175.54763397 105.03184418 174.78667419 105.16496277 174.00265503 C105.58757297 171.48370264 105.98116892 168.96109817 106.375 166.4375 C106.66874756 164.65555473 106.96427365 162.87390184 107.26147461 161.0925293 C108.20371845 155.3995812 109.10556482 149.70062956 110 144 C110.14886658 143.05330444 110.29773315 142.10660889 110.45111084 141.13122559 C110.89887979 138.28287184 111.34600904 135.43441834 111.79296875 132.5859375 C112.23613909 129.76294606 112.67930946 126.93995471 113.1227417 124.11700439 C113.41622213 122.24536908 113.70874136 120.37358279 114.00030518 118.50164795 C115.98504424 105.77891176 118.26025512 93.19017244 121.00317383 80.60742188 C122.75565276 72.49974041 124.08904518 64.400245 125.06347656 56.16235352 C125.80089722 50.19910278 125.80089722 50.19910278 128 48 C133.80013894 57.497593 137.84814722 66.93361083 140.875 77.625 C144.75059445 90.7163823 149.41348707 103.44663255 154.3125 116.1875 C154.83780304 117.55482269 154.83780304 117.55482269 155.37371826 118.94976807 C157.30342998 123.96380781 159.24930842 128.97125363 161.20950317 133.97344971 C161.88561214 135.70675055 162.55030103 137.44449866 163.21264648 139.18310547 C165.20102556 144.34397105 167.53292965 149.0444957 170.4375 153.75 C170.80681641 154.37003906 171.17613281 154.99007812 171.55664062 155.62890625 C176.70805088 164.11043094 181.11760195 168.5645275 191 171 C196.32688686 171.9337969 201.61312377 172.54000954 207 173 C207.94359375 173.09667969 208.8871875 173.19335938 209.859375 173.29296875 C216.64750731 173.69290648 222.20322472 171.47175289 228 168 C229.80761766 164.38476469 229.81051896 160.14436548 230.3046875 156.1640625 C231 153 231 153 232.578125 151.01953125 C234.6911053 148.01840263 234.10644219 145.67971738 233.875 142.0625 C233.65672075 135.39225627 234.54611574 129.45805459 236.1875 123 C236.4136499 122.10901611 236.6397998 121.21803223 236.87280273 120.30004883 C237.34605309 118.4527507 237.82142215 116.60599416 238.29882812 114.75976562 C242.82302818 96.95281665 245.46426003 78.89303917 247.94506836 60.71191406 C248.12782318 59.39924561 248.12782318 59.39924561 248.31427002 58.06005859 C248.54438678 56.4046475 248.76869878 54.74841561 248.98626709 53.09130859 C249.50275097 49.3978239 250.00355318 46.19644162 252 43 C258.81499838 54.93298135 260.46572874 66.7088839 260.43359375 80.3046875 C260.43817529 81.64023091 260.44348656 82.97577199 260.44947815 84.31130981 C260.45833095 87.08963693 260.45607755 89.86767542 260.44604492 92.64599609 C260.43457222 96.16111013 260.45477975 99.67521686 260.48396206 103.1901989 C260.50253748 105.94278011 260.50198979 108.69512939 260.49632454 111.44775772 C260.49610199 113.35891231 260.51279407 115.27004591 260.53013611 117.18112183 C260.43760068 129.00032517 257.93605138 140.5742741 252.4375 151.125 C252.10089355 151.78113281 251.76428711 152.43726563 251.41748047 153.11328125 C241.33997989 171.86296294 224.13041849 184.10756518 204.32421875 191.0546875 C197.04613287 193.12436645 189.9420031 193.17014205 182.42236328 193.22119141 C180.6854197 193.23839501 180.6854197 193.23839501 178.91338634 193.25594616 C175.72139349 193.2863082 172.52940267 193.31232866 169.3373549 193.33609033 C166.61087069 193.35700443 163.88441795 193.38111367 161.15795928 193.40509588 C152.25238019 193.4830651 143.34672634 193.54790494 134.44101763 193.60903215 C132.13084128 193.62495973 129.82066759 193.64123413 127.51049423 193.65758896 C83.82927619 193.96530274 40.15009055 194.11904689 -3.53165436 193.83379364 C-7.17529702 193.81257108 -10.81890142 193.79860578 -14.46258545 193.78668213 C-20.16598169 193.76691363 -25.86888845 193.72711514 -31.57204247 193.67125893 C-33.63567873 193.65379574 -35.69938023 193.6426074 -37.76308632 193.63850975 C-52.36283302 193.6017216 -65.07628451 192.13701613 -78.25 185.25 C-78.91765381 184.90783447 -79.58530762 184.56566895 -80.27319336 184.21313477 C-86.0938005 181.13362341 -91.13231445 177.44085491 -96 173 C-96.91265625 172.22462891 -96.91265625 172.22462891 -97.84375 171.43359375 C-109.85966272 160.53734563 -119.19294891 141.85618758 -120.20158386 125.7888031 C-120.29675084 122.00186253 -120.33182117 118.21755331 -120.3359375 114.4296875 C-120.34238364 113.02116773 -120.34911327 111.61264923 -120.35610962 110.20413208 C-120.3680271 107.26073105 -120.37179643 104.31744686 -120.37060547 101.37402344 C-120.37040313 97.64586665 -120.39764077 93.91847942 -120.43214989 90.19050407 C-120.45465446 87.28181688 -120.45843584 84.37330762 -120.45738602 81.46454239 C-120.4608211 79.43592899 -120.48233684 77.40737112 -120.50448608 75.37887573 C-120.40917331 55.68875447 -113.15307698 38.57433284 -100 24 C-99.37480469 23.29359375 -98.74960938 22.5871875 -98.10546875 21.859375 C-93.05885526 16.47357975 -87.38054671 12.66141077 -81 9 C-80.19691406 8.5359375 -79.39382812 8.071875 -78.56640625 7.59375 C-64.75067368 0.15276432 -51.29012388 -0.64984567 -35.93041992 -0.78393555 C-32.67634779 -0.81259823 -29.423555 -0.86781254 -26.16992188 -0.92773438 C-24.07554374 -0.95986322 -21.9811423 -0.99051402 -19.88671875 -1.01953125 C-18.92714767 -1.0340181 -17.9675766 -1.04850494 -16.97892761 -1.06343079 C-11.23002443 -1.10857071 -5.70186527 -0.74457723 0 0 Z " fill="#FCE8F0" transform="translate(163,192)"/>
<path d="M0 0 C-1.32 0.33 -2.64 0.66 -4 1 C-4 1.66 -4 2.32 -4 3 C-4.66 3 -5.32 3 -6 3 C-7.03660596 6.32302051 -8.02046157 9.65975935 -9 13 C-9.26592862 13.85576504 -9.53185724 14.71153008 -9.80584431 15.59322739 C-12.30740165 24.37229853 -12.44236166 32.83985816 -12.43237305 41.87597656 C-12.44140775 43.54275735 -12.45173911 45.20953152 -12.46325684 46.876297 C-12.49065249 51.36513061 -12.50008745 55.85383756 -12.50611091 60.34274387 C-12.51554032 65.04729214 -12.54174715 69.75174747 -12.56611633 74.45623779 C-12.60966 83.34876896 -12.6382813 92.24128197 -12.66143972 101.13388705 C-12.68855669 111.26461896 -12.73246402 121.39525681 -12.77772844 131.52592134 C-12.8704008 152.35056352 -12.94216096 173.17523384 -13 194 C-18.29779779 194.10014741 -23.59502431 194.17206076 -28.89355469 194.21972656 C-30.68955097 194.23963213 -32.48548428 194.26676679 -34.28125 194.30175781 C-48.77338045 194.57672011 -61.17547789 193.08515936 -74.25 186.25 C-74.91765381 185.90783447 -75.58530762 185.56566895 -76.27319336 185.21313477 C-82.0938005 182.13362341 -87.13231445 178.44085491 -92 174 C-92.91265625 173.22462891 -92.91265625 173.22462891 -93.84375 172.43359375 C-105.85966272 161.53734563 -115.19294891 142.85618758 -116.20158386 126.7888031 C-116.29675084 123.00186253 -116.33182117 119.21755331 -116.3359375 115.4296875 C-116.34238364 114.02116773 -116.34911327 112.61264923 -116.35610962 111.20413208 C-116.3680271 108.26073105 -116.37179643 105.31744686 -116.37060547 102.37402344 C-116.37040313 98.64586665 -116.39764077 94.91847942 -116.43214989 91.19050407 C-116.45465446 88.28181688 -116.45843584 85.37330762 -116.45738602 82.46454239 C-116.4608211 80.43592899 -116.48233684 78.40737112 -116.50448608 76.37887573 C-116.40917331 56.68875447 -109.15307698 39.57433284 -96 25 C-95.37480469 24.29359375 -94.74960938 23.5871875 -94.10546875 22.859375 C-89.05885526 17.47357975 -83.38054671 13.66141077 -77 10 C-76.19691406 9.5359375 -75.39382812 9.071875 -74.56640625 8.59375 C-59.63845916 0.55373909 -44.97903953 0.35610669 -28.4375 0.25 C-26.231097 0.22178139 -24.02471525 0.19184597 -21.81835938 0.16015625 C-14.54563765 0.06173773 -7.2734238 -0.00584385 0 0 Z " fill="#E9C4D2" transform="translate(159,191)"/>
<path d="M0 0 C2.64 0 5.28 0 8 0 C8.1043335 0.6305127 8.20866699 1.26102539 8.31616211 1.91064453 C10.80485187 16.60036972 14.20274325 30.73485103 18.63061523 44.95922852 C21.00720063 52.6150351 23.14584086 60.26439514 25 68.0625 C27.4252823 78.19830125 30.45095666 88.08534005 33.61767578 98.01196289 C36.17810661 106.1157104 38.3648242 114.24470022 40.375 122.5 C46.85458787 150.590603 46.85458787 150.590603 60.75 174.8125 C64.05117141 176.55478491 67.48301222 177.76585702 71 179 C72.37608345 179.517964 73.75111276 180.03873839 75.125 180.5625 C77.55938525 181.48919892 79.9274307 182.26979802 82.4375 183 C83.283125 183.33 84.12875 183.66 85 184 C86.231394 187.69418201 85.64432764 190.2056261 85 194 C66.43877835 194.10767064 47.88185072 193.80054812 29.32312012 193.53643799 C24.99146919 193.47509742 20.65979618 193.41535847 16.328125 193.35546875 C7.88539476 193.23851144 -0.55731006 193.11983098 -9 193 C-9.09369807 171.24151036 -9.16410354 149.48305428 -9.20724869 127.72440338 C-9.22781972 117.62007375 -9.25583519 107.51586994 -9.30175781 97.41162109 C-9.34179352 88.59840826 -9.36747242 79.7852866 -9.37635398 70.97198534 C-9.38154056 66.31113926 -9.39361529 61.65055388 -9.42292023 56.98979187 C-9.45035468 52.59028781 -9.45838929 48.19114834 -9.45243073 43.79156685 C-9.45351858 42.18893505 -9.46130388 40.58628926 -9.4768219 38.98373222 C-9.59637651 25.98412489 -8.2630617 13.67340845 -2 2 C-1.34 2 -0.68 2 0 2 C0 1.34 0 0.68 0 0 Z " fill="#FCE8F0" transform="translate(155,192)"/>
<path d="M0 0 C3.75642356 2.50428238 4.4690477 3.73057182 6 8 C6.4027711 12.42242748 6.31971753 16.82035828 6.2487793 21.25732422 C6.2380615 22.60793601 6.22868707 23.95855903 6.22055054 25.30918884 C6.19474506 28.96390065 6.15020916 32.61817004 6.10225272 36.27264929 C6.05528147 40.09623157 6.0256146 43.91994761 5.99409485 47.74368286 C5.93183109 54.97912168 5.85405485 62.21430684 5.77067453 69.44952977 C5.67648069 77.68882401 5.59962666 85.92825161 5.52421319 94.16773582 C5.36873932 111.11205959 5.18925346 128.05601473 5 145 C-22.225 145.495 -22.225 145.495 -50 146 C-50 142.7 -50 139.4 -50 136 C-48.453125 136.9590625 -48.453125 136.9590625 -46.875 137.9375 C-43.55003944 139.82319908 -40.85436625 140.68535786 -37 141 C-36.34773437 141.07476562 -35.69546875 141.14953125 -35.0234375 141.2265625 C-31.25159424 141.49497082 -29.37818356 141.29315007 -26.36474609 138.95727539 C-23.59851738 135.49791875 -22.85786042 132.57075476 -22.2265625 128.30859375 C-22.03275749 127.16715408 -22.03275749 127.16715408 -21.83503723 126.00265503 C-21.41242703 123.48370264 -21.01883108 120.96109817 -20.625 118.4375 C-20.33125244 116.65555473 -20.03572635 114.87390184 -19.73852539 113.0925293 C-18.79628155 107.3995812 -17.89443518 101.70062956 -17 96 C-16.85113342 95.05330444 -16.70226685 94.10660889 -16.54888916 93.13122559 C-16.10112021 90.28287184 -15.65399096 87.43441834 -15.20703125 84.5859375 C-14.76386091 81.76294606 -14.32069054 78.93995471 -13.8772583 76.11700439 C-13.58377787 74.24536908 -13.29125864 72.37358279 -12.99969482 70.50164795 C-11.0149381 57.77879855 -8.73428362 45.19175285 -5.99902344 32.60742188 C-4.07958148 23.70604261 -2.69641773 14.79904682 -1.54296875 5.76953125 C-1 2 -1 2 0 0 Z " fill="#E9C2D4" transform="translate(290,240)"/>
<path d="M0 0 C17.27663348 -0.88221107 34.91522617 3.05968888 48.60935974 14.32377625 C50 16 50 16 49.91333008 19.92285156 C49.71546323 21.58085867 49.49953178 23.23676931 49.26953125 24.890625 C49.15972931 25.77887466 49.04992737 26.66712433 48.9367981 27.58229065 C48.57673622 30.47359598 48.19457043 33.36152847 47.8125 36.25 C47.31373964 40.19580178 46.82535883 44.14287437 46.3359375 48.08984375 C46.21482101 49.05286911 46.09370453 50.01589447 45.96891785 51.00810242 C45.10511405 57.93247176 44.43564016 64.8518469 43.9375 71.8125 C41.95691063 98.08617875 41.95691063 98.08617875 38 106 C37.34 106 36.68 106 36 106 C34.54492466 102.92467614 33.11447119 99.83845236 31.6875 96.75 C31.28337891 95.89664063 30.87925781 95.04328125 30.46289062 94.1640625 C27.44072232 87.57917546 25.54555099 81.06776289 24 74 C23.77062744 72.96343262 23.54125488 71.92686523 23.30493164 70.85888672 C22.83517401 68.71062689 22.36965709 66.56143573 21.90820312 64.41137695 C15.4115802 31.70149716 15.4115802 31.70149716 1 2 C0.67 1.34 0.34 0.68 0 0 Z " fill="#FCE8F0" transform="translate(344,192)"/>
<path d="M0 0 C6.08723655 -0.02467081 12.17444417 -0.04284604 18.26171875 -0.05493164 C20.33366401 -0.05996852 22.4056057 -0.06679825 24.47753906 -0.07543945 C27.45118082 -0.08753321 30.42477569 -0.09323467 33.3984375 -0.09765625 C34.32868744 -0.10281754 35.25893738 -0.10797882 36.21737671 -0.11329651 C37.07811798 -0.11337204 37.93885925 -0.11344757 38.82568359 -0.11352539 C39.58513275 -0.115746 40.34458191 -0.11796661 41.12704468 -0.12025452 C43 0 43 0 45 1 C43.75684015 8.73500674 41.91260891 16.12022688 39.6875 23.625 C35.34822527 38.72464024 32.40102065 53.98223529 29.6875 69.4453125 C29.46787598 70.69401123 29.24825195 71.94270996 29.02197266 73.22924805 C28.60302734 75.63051611 28.1908038 78.03297062 27.78662109 80.43676758 C25.39748383 94.30045088 25.39748383 94.30045088 23 100 C22.01 100.495 22.01 100.495 21 101 C20.84966309 100.26813477 20.69932617 99.53626953 20.54443359 98.78222656 C17.49127848 83.93415399 14.39138852 69.09893478 11.18774414 54.2824707 C9.2661754 45.35201002 7.45594276 36.40219334 5.73608398 27.43066406 C4.63576322 21.79050135 3.31503469 16.29369153 1.67260742 10.78540039 C0.80753826 7.20297788 0.41055772 3.6623698 0 0 Z " fill="#EAC2D4" transform="translate(238,192)"/>
<path d="M0 0 C2.57550032 2.28199601 3.79852625 4.37442045 5.0625 7.5625 C5.38347656 8.34753906 5.70445312 9.13257813 6.03515625 9.94140625 C8.87282623 18.93693497 9.31931451 27.61961662 9.3359375 37.01171875 C9.34238716 38.35154859 9.34911701 39.69137711 9.35610962 41.03120422 C9.3680102 43.82739518 9.3717981 46.62346329 9.37060547 49.41967773 C9.370403 52.95837276 9.39766222 56.49625828 9.43214989 60.03476238 C9.45466922 62.80019055 9.45843544 65.5654318 9.45738602 68.33094215 C9.46081491 70.25541301 9.48231582 72.17982555 9.50448608 74.10417175 C9.44407715 85.96236609 6.9546036 97.53867575 1.4375 108.125 C1.10089355 108.78113281 0.76428711 109.43726563 0.41748047 110.11328125 C-5.40599269 120.94813729 -13.83381031 130.07611361 -24 137 C-24.33 137 -24.66 137 -25 137 C-25.33 133.37 -25.66 129.74 -26 126 C-24.515 125.505 -24.515 125.505 -23 125 C-21.19238234 121.38476469 -21.18948104 117.14436548 -20.6953125 113.1640625 C-20 110 -20 110 -18.421875 108.01953125 C-16.3088947 105.01840263 -16.89355781 102.67971738 -17.125 99.0625 C-17.34327925 92.39225627 -16.45388426 86.45805459 -14.8125 80 C-14.5863501 79.10901611 -14.3602002 78.21803223 -14.12719727 77.30004883 C-13.65394691 75.4527507 -13.17857785 73.60599416 -12.70117188 71.75976562 C-8.17713306 53.95345131 -5.52874244 35.88108231 -2.96704102 17.71191406 C-2.84339676 16.83680176 -2.7197525 15.96168945 -2.59236145 15.06005859 C-2.35938309 13.40413567 -2.12862415 11.74789846 -1.9004364 10.09130859 C-1.42180406 6.67099145 -0.87914777 3.33909423 0 0 Z " fill="#E9C3D3" transform="translate(414,235)"/>
<path d="M0 0 C2.475 0.99 2.475 0.99 5 2 C4.96519531 3.2684375 4.96519531 3.2684375 4.9296875 4.5625 C4.82599541 11.08028874 4.89540899 16.80314868 7 23 C7.66 23.66 8.32 24.32 9 25 C9.16015625 27.12890625 9.16015625 27.12890625 9.0625 29.5625 C9.00809809 31.04081272 8.97973733 32.52082541 9 34 C9.33 34.33 9.66 34.66 10 35 C10.04063832 36.66617115 10.042721 38.33388095 10 40 C10.99 40.33 11.98 40.66 13 41 C12.96519531 41.96099609 12.96519531 41.96099609 12.9296875 42.94140625 C12.91164062 43.80636719 12.89359375 44.67132813 12.875 45.5625 C12.84019531 46.83287109 12.84019531 46.83287109 12.8046875 48.12890625 C13.04295854 51.63149047 13.98460564 54.64029165 15 58 C17.24535358 67.00484992 19.09857763 76.11931695 20.75 85.25 C20.87753662 85.94013184 21.00507324 86.63026367 21.13647461 87.34130859 C21.82499484 91.27336306 22.12389592 95.01055147 22 99 C19.8260472 95.31908918 19.13228753 91.41611037 18.3359375 87.2734375 C18.01927092 85.68480146 17.70253614 84.09617901 17.38574219 82.50756836 C17.2211853 81.67127899 17.05662842 80.83498962 16.88708496 79.97335815 C14.11201334 65.89243308 11.11868624 51.88816352 7.75 37.9375 C4.71763768 25.36225387 2.09594947 12.76874482 0 0 Z M13 43 C15 44 15 44 15 44 Z " fill="#BD75D2" transform="translate(145,113)"/>
<path d="M0 0 C0.33 0 0.66 0 1 0 C1.02740022 1.85408125 1.04657422 3.70828469 1.0625 5.5625 C1.07410156 6.59503906 1.08570313 7.62757813 1.09765625 8.69140625 C1 12 1 12 0.5234375 15.13671875 C-0.3484701 21.57191741 -0.36001481 28.05987811 -0.51757812 34.546875 C-0.55173828 35.5884375 -0.58589844 36.63 -0.62109375 37.703125 C-0.6461499 38.64833008 -0.67120605 39.59353516 -0.69702148 40.56738281 C-1 43 -1 43 -3 46 C-3.50834558 47.89026891 -3.50834558 47.89026891 -3.78125 49.94140625 C-3.90113281 50.68970703 -4.02101563 51.43800781 -4.14453125 52.20898438 C-4.38208726 53.78181402 -4.61906367 55.35473132 -4.85546875 56.92773438 C-5.79746114 62.79746114 -5.79746114 62.79746114 -8 65 C-11 64 -11 64 -12.875 60.75 C-20.39794922 44.62939453 -20.39794922 44.62939453 -21 36 C-18.50144095 38.49855905 -17.84247795 40.74739285 -16.625 44.0625 C-14.81763422 48.9000191 -12.89310706 53.61903279 -10.69921875 58.29296875 C-10 60 -10 60 -10 62 C-9.34 62 -8.68 62 -8 62 C-4.69622469 44.47409035 -2.78375558 26.99238982 -1.32543945 9.23779297 C-1.01264784 6.12583315 -0.55105027 3.07783866 0 0 Z " fill="#C57BD8" transform="translate(390,236)"/>
<path d="M0 0 C0.33 0 0.66 0 1 0 C0.53354382 8.94239564 -0.73574329 17.3953133 -2.6875 26.125 C-5.20948144 37.81069802 -7.38529066 49.52521969 -9.375 61.3125 C-9.50796478 62.09941223 -9.64092957 62.88632446 -9.77792358 63.69708252 C-10.52553736 68.13024803 -11.26594074 72.56456691 -12 77 C-12.33 77 -12.66 77 -13 77 C-13.38574524 65.81338802 -11.35779297 55.13655601 -8.72265625 44.3046875 C-7.70839689 39.66650687 -7.1064262 34.99893312 -6.52734375 30.2890625 C-5.95878348 26.74293106 -4.99179399 23.4514431 -4 20 C-3.23350172 16.53209246 -2.55266681 13.04871923 -1.875 9.5625 C-1.69324219 8.64017578 -1.51148438 7.71785156 -1.32421875 6.76757812 C-0.88015965 4.5122253 -0.43881982 2.256377 0 0 Z " fill="#C677D6" transform="translate(286,256)"/>
<path d="M0 0 C6.04882621 2.12526326 6.04882621 2.12526326 8 5 C7.97927451 7.6960252 7.7926861 10.0806229 7.41796875 12.73046875 C7.32493973 13.48088943 7.23191071 14.23131012 7.13606262 15.00447083 C6.8353381 17.40108232 6.51174161 19.7939681 6.1875 22.1875 C5.97960674 23.811656 5.77320799 25.43600405 5.56835938 27.06054688 C5.06288846 31.04280051 4.53688549 35.02186495 4 39 C3.67 39 3.34 39 3 39 C2.98018066 38.17387207 2.96036133 37.34774414 2.93994141 36.49658203 C2.86108928 33.38388326 2.7743779 30.27152265 2.68261719 27.15917969 C2.62624001 25.1687787 2.57864607 23.1781351 2.53125 21.1875 C2.31116531 13.92470525 1.77136266 7.05839105 0 0 Z " fill="#E8BED8" transform="translate(386,203)"/>
<path d="M0 0 C1.69523651 3.71847367 2.28656192 6.73771214 2.4140625 10.8125 C2.45281494 11.95759033 2.49156738 13.10268066 2.53149414 14.2824707 C2.56235107 15.50925537 2.59320801 16.73604004 2.625 18 C2.66294678 19.26481201 2.70089355 20.52962402 2.73999023 21.83276367 C3.11303048 35.55404664 3.09891875 49.27464232 3 63 C2.67 63 2.34 63 2 63 C1.71235721 55.92003336 1.42786982 48.83994482 1.14550781 41.75976562 C1.04921818 39.35446343 0.95222367 36.94918935 0.85449219 34.54394531 C0.71360989 31.07364046 0.57531787 27.60324024 0.4375 24.1328125 C0.39375244 23.06886261 0.35000488 22.00491272 0.30493164 20.90872192 C0.05741728 14.60177471 -0.05512881 8.31170127 0 2 C-1.60875 2.4640625 -1.60875 2.4640625 -3.25 2.9375 C-5.82866222 3.66812096 -8.39512102 4.37482904 -11 5 C-11 4.34 -11 3.68 -11 3 C-7.28026121 0.15549386 -4.62609198 -0.3227506 0 0 Z " fill="#B674CB" transform="translate(417,124)"/>
<path d="M0 0 C0.33 0 0.66 0 1 0 C0.75603456 12.3978803 -1.87760502 24.27362072 -4.44335938 36.35961914 C-4.97958827 38.90317858 -5.49469942 41.4501356 -6 44 C-6.33 44 -6.66 44 -7 44 C-6.85978195 41.35375716 -6.71310224 38.70815422 -6.5625 36.0625 C-6.52318359 35.30775391 -6.48386719 34.55300781 -6.44335938 33.77539062 C-6.11328125 28.11328125 -6.11328125 28.11328125 -5 27 C-3.30141643 20.67012217 -2.69224789 14.28734177 -2.34375 7.76171875 C-1.98557353 4.88409643 -1.18939647 2.63297847 0 0 Z " fill="#C676D6" transform="translate(409,260)"/>
<path d="M0 0 C1.02476022 3.17460683 0.90860901 5.11055807 0.0625 8.3125 C-1.26541857 14.16582529 -1.02551225 19.82735256 -0.77734375 25.77734375 C-1.03141479 29.45468778 -1.47411503 29.64164822 -4 32 C-4.50619027 34.8295332 -4.50619027 34.8295332 -4.5625 37.9375 C-4.72240093 41.84780456 -4.96925528 44.61542546 -7 48 C-8.65 48 -10.3 48 -12 48 C-11.36191406 47.4740625 -10.72382813 46.948125 -10.06640625 46.40625 C-7.47207182 43.38524809 -7.32918478 41.42585203 -6.9375 37.5 C-6.3138186 31.38932383 -6.3138186 31.38932383 -4.44140625 29.06640625 C-2.30455643 26.00300908 -2.80847245 23.01268094 -3 19.4375 C-3.20926632 12.50000451 -2.3453888 6.58942567 0 0 Z " fill="#ECB3E4" transform="translate(400,314)"/>
<path d="M0 0 C2.95183101 2.95183101 3.08663988 5.95511947 4 10 C4.99 9.34 5.98 8.68 7 8 C7.5625 9.9375 7.5625 9.9375 8 12 C7.67 12.33 7.34 12.66 7 13 C6.46516148 19.24256837 8.0934075 24.40807503 10 30.3125 C10.56473503 32.09955565 11.12734453 33.88728484 11.6875 35.67578125 C11.93886719 36.45864502 12.19023437 37.24150879 12.44921875 38.0480957 C13 40 13 40 13 42 C12.34 42 11.68 42 11 42 C9.42462715 36.82480876 7.85832662 31.64699054 6.30029297 26.46655273 C5.76923812 24.70538823 5.23573156 22.94496104 4.69970703 21.18530273 C3.92872439 18.65278925 3.16665897 16.1177367 2.40625 13.58203125 C2.16563843 12.79850784 1.92502686 12.01498444 1.67712402 11.2077179 C0.53484531 7.36746651 -0.31060297 4.05548651 0 0 Z " fill="#C77AD9" transform="translate(167,213)"/>
<path d="M0 0 C1.32 0.33 2.64 0.66 4 1 C4.103125 1.66 4.20625 2.32 4.3125 3 C5.04704696 6.20529581 6.14291155 9.09309348 7.37890625 12.1328125 C8 14 8 14 8 17 C8.66 17 9.32 17 10 17 C10.33 18.98 10.66 20.96 11 23 C11.33 23 11.66 23 12 23 C12.10957031 23.56847656 12.21914063 24.13695312 12.33203125 24.72265625 C13.37938166 29.82316758 14.79271753 34.284442 17 39 C16.01 39.495 16.01 39.495 15 40 C12.8616476 34.46492789 10.72545931 28.9290275 8.59130859 23.39233398 C7.86437055 21.50733647 7.13683241 19.62257027 6.40869141 17.73803711 C5.36464636 15.03559398 4.32273357 12.33233739 3.28125 9.62890625 C2.78908997 8.35703209 2.78908997 8.35703209 2.2869873 7.0594635 C0 1.11387171 0 1.11387171 0 0 Z " fill="#C67AD8" transform="translate(313,298)"/>
<path d="M0 0 C2.96103393 4.44155089 3.85375289 9.30649641 5.1875 14.4375 C5.47302734 15.48744141 5.75855469 16.53738281 6.05273438 17.61914062 C6.31763672 18.63041016 6.58253906 19.64167969 6.85546875 20.68359375 C7.09934326 21.60712646 7.34321777 22.53065918 7.59448242 23.48217773 C8.00723161 26.04490043 7.83322307 27.56866862 7 30 C7 29.01 7 28.02 7 27 C6.34 27 5.68 27 5 27 C5 24.36 5 21.72 5 19 C4.01 19.33 3.02 19.66 2 20 C1.01 18.68 0.02 17.36 -1 16 C0.32 15.67 1.64 15.34 3 15 C2.01 14.67 1.02 14.34 0 14 C0 9.38 0 4.76 0 0 Z " fill="#BE70D3" transform="translate(226,147)"/>
<path d="M0 0 C0.33 0 0.66 0 1 0 C0.69711405 6.8452224 -0.7782737 12.59410834 -3.0859375 19.02734375 C-4.20978952 22.68226421 -4.56405261 26.13492459 -4.7265625 29.94140625 C-5 32 -5 32 -7 35 C-7.70812814 37.32108669 -8.38024152 39.65377147 -9 42 C-10.15942135 38.56915094 -9.82353512 36.32930267 -8.92578125 32.8515625 C-8.67199707 31.85189453 -8.41821289 30.85222656 -8.15673828 29.82226562 C-7.73884033 28.23961914 -7.73884033 28.23961914 -7.3125 26.625 C-7.03647949 25.55185547 -6.76045898 24.47871094 -6.47607422 23.37304688 C-4.44812907 15.54439998 -2.31891171 7.74789325 0 0 Z " fill="#C779D6" transform="translate(281,200)"/>
<path d="M0 0 C0.66 0.33 1.32 0.66 2 1 C-1.3 4.63 -4.6 8.26 -8 12 C-7.67 12.66 -7.34 13.32 -7 14 C-7.99 14 -8.98 14 -10 14 C-9.34 16.31 -8.68 18.62 -8 21 C-8.66 21.33 -9.32 21.66 -10 22 C-11.86889989 18.4820708 -12.58603614 15.18693159 -12.0234375 11.203125 C-9.70038697 6.20235974 -4.38424044 3.1202502 0 0 Z " fill="#BE74D3" transform="translate(150,79)"/>
<path d="M0 0 C2 1 2 1 3.0703125 3.8359375 C3.41835938 5.00382812 3.76640625 6.17171875 4.125 7.375 C4.47820312 8.53773438 4.83140625 9.70046875 5.1953125 10.8984375 C6 14 6 14 6 17 C7.32 17 8.64 17 10 17 C9.7834375 17.84304688 9.566875 18.68609375 9.34375 19.5546875 C8.9221737 23.78003178 9.91073046 26.21100108 11.5 30.125 C14.26640576 36.96743978 14.26640576 36.96743978 13 41 C9.06989164 30.50164494 5.14707516 20.014441 2 9.25 C1.79286377 8.54238525 1.58572754 7.83477051 1.37231445 7.10571289 C0 2.28854803 0 2.28854803 0 0 Z " fill="#C479D8" transform="translate(299,255)"/>
<path d="M0 0 C2.64 0 5.28 0 8 0 C7.938125 1.155 7.87625 2.31 7.8125 3.5 C7.8125 8.19490468 9.21078626 11.72353845 11 16 C11.60188802 17.57637338 12.18527905 19.15993319 12.75 20.75 C13.01296875 21.46671875 13.2759375 22.1834375 13.546875 22.921875 C14.06759822 25.3100194 13.65554835 26.6795285 13 29 C12.62488281 27.87722656 12.24976563 26.75445312 11.86328125 25.59765625 C8.73909526 16.40368185 5.40949303 8.11423955 0 0 Z " fill="#FADAF7" transform="translate(344,192)"/>
<path d="M0 0 C1.47629883 0.23686523 1.47629883 0.23686523 2.98242188 0.47851562 C7.2872678 1.2072081 10.96271256 1.94102967 14.8125 4.0625 C14.21824219 3.9903125 13.62398438 3.918125 13.01171875 3.84375 C7.42325909 3.21798158 1.97761513 2.992128 -3.64453125 3.125 C-6.26781752 3.06052599 -8.63441541 2.64920525 -11.1875 2.0625 C-11.785625 2.990625 -12.38375 3.91875 -13 4.875 C-16.04115854 9.30640244 -16.04115854 9.30640244 -18.1875 11.0625 C-18.8475 11.0625 -19.5075 11.0625 -20.1875 11.0625 C-17.20848847 0.13945774 -10.13483684 -2.00816184 0 0 Z " fill="#B973CC" transform="translate(305.1875,176.9375)"/>
<path d="M0 0 C6.11259932 4.31994637 8.78776822 8.77492627 11.4375 15.6875 C11.78748047 16.54150391 12.13746094 17.39550781 12.49804688 18.27539062 C15 24.50824058 15 24.50824058 15 28 C11 23.375 11 23.375 11 20 C10.34 19.67 9.68 19.34 9 19 C9 17.35 9 15.7 9 14 C7.68 13.34 6.36 12.68 5 12 C5 11.01 5 10.02 5 9 C4.01 9.33 3.02 9.66 2 10 C1.855625 8.906875 1.71125 7.81375 1.5625 6.6875 C1.11711896 3.06877013 1.11711896 3.06877013 0 0 Z " fill="#BB71D0" transform="translate(192,74)"/>
<path d="M0 0 C0.66 0 1.32 0 2 0 C2.14622803 0.83772949 2.29245605 1.67545898 2.44311523 2.53857422 C2.98667643 5.64383733 3.53303318 8.74859169 4.08129883 11.85302734 C4.31810066 13.19723073 4.55378425 14.54163161 4.78833008 15.88623047 C5.12548086 17.81789775 5.46697611 19.74880518 5.80859375 21.6796875 C6.01282959 22.84226074 6.21706543 24.00483398 6.42749023 25.20263672 C6.86189856 27.93945989 6.86189856 27.93945989 8 30 C8.99 29.01 9.98 28.02 11 27 C10.71872579 28.48117801 10.42466268 29.95993249 10.125 31.4375 C9.96257812 32.26121094 9.80015625 33.08492188 9.6328125 33.93359375 C9.31957031 34.95646484 9.31957031 34.95646484 9 36 C8.01 36.495 8.01 36.495 7 37 C6.15966018 33.01730318 5.3236533 29.03372261 4.49145508 25.04931641 C4.20843225 23.69718572 3.92427669 22.34529157 3.63891602 20.99365234 C2.16619861 14.01436461 0.71558815 7.10153303 0 0 Z " fill="#EEB4E3" transform="translate(252,256)"/>
<path d="M0 0 C3 2 3 2 3.6875 4.625 C3.790625 5.40875 3.89375 6.1925 4 7 C3.34 6.67 2.68 6.34 2 6 C0.44843236 9.48477087 -0.27547356 12.38739001 -0.5 16.1875 C-0.91062515 21.49681109 -1.39406867 26.89880637 -3 32 C-3.99 32.495 -3.99 32.495 -5 33 C-1.61128527 3.22257053 -1.61128527 3.22257053 0 0 Z " fill="#EDB6E4" transform="translate(290,240)"/>
<path d="M0 0 C2.92298121 2.41463665 3.64224441 4.24356635 4 8 C3.07421875 10.5703125 3.07421875 10.5703125 1.6875 13.125 C1.23761719 13.97320312 0.78773438 14.82140625 0.32421875 15.6953125 C-0.71538181 17.50464681 -1.84248808 19.26373212 -3 21 C-2.69073032 18.24960167 -2.3777116 15.49971822 -2.0625 12.75 C-1.97548828 11.97269531 -1.88847656 11.19539062 -1.79882812 10.39453125 C-1.71181641 9.64042969 -1.62480469 8.88632813 -1.53515625 8.109375 C-1.456604 7.41811523 -1.37805176 6.72685547 -1.29711914 6.01464844 C-0.99455017 3.96304687 -0.53587616 2.00217465 0 0 Z " fill="#E8B7DA" transform="translate(414,235)"/>
<path d="M0 0 C3.98659302 3.72939347 5.07567228 6.26864979 5.31640625 11.66796875 C5.35830078 12.56064453 5.40019531 13.45332031 5.44335938 14.37304688 C5.48267578 15.30181641 5.52199219 16.23058594 5.5625 17.1875 C5.60568359 18.12787109 5.64886719 19.06824219 5.69335938 20.03710938 C5.79938665 22.35792854 5.90145029 24.67885325 6 27 C4.21084555 24.31626833 3.60618946 22.99558593 2.9296875 19.98046875 C2.75566406 19.20509766 2.58164063 18.42972656 2.40234375 17.63085938 C2.14130859 16.42139648 2.14130859 16.42139648 1.875 15.1875 C1.60236328 13.99543945 1.60236328 13.99543945 1.32421875 12.77929688 C0.36943288 8.43968743 -0.21609067 4.4730769 0 0 Z " fill="#EFBAE0" transform="translate(241,202)"/>
<path d="M0 0 C0.33 0 0.66 0 1 0 C0.89049976 3.9589232 0.75978332 7.91686326 0.625 11.875 C0.5940625 13.00292969 0.563125 14.13085938 0.53125 15.29296875 C0.49257813 16.36933594 0.45390625 17.44570313 0.4140625 18.5546875 C0.3826416 19.54968262 0.3512207 20.54467773 0.31884766 21.56982422 C0 24 0 24 -2 26 C-2.45811675 27.97235333 -2.45811675 27.97235333 -2.625 30.125 C-2.74875 31.40375 -2.8725 32.6825 -3 34 C-3.66 34 -4.32 34 -5 34 C-4.25405281 26.59549258 -3.13670535 19.28104372 -1.9375 11.9375 C-1.75123047 10.78572266 -1.56496094 9.63394531 -1.37304688 8.44726562 C-0.91733259 5.63118505 -0.45960624 2.81544753 0 0 Z " fill="#EEB5E0" transform="translate(410,260)"/>
<path d="M0 0 C3.37462715 0.54723683 5.08235 1.0549 8 3 C9.92744369 3.3626117 9.92744369 3.3626117 12.01171875 3.4140625 C13.14770508 3.47207031 13.14770508 3.47207031 14.30664062 3.53125 C15.09232422 3.5621875 15.87800781 3.593125 16.6875 3.625 C17.48478516 3.66367187 18.28207031 3.70234375 19.10351562 3.7421875 C21.06863475 3.83632494 23.0342854 3.91924632 25 4 C22.59972498 6.80772911 22.21533059 6.98205578 18.25 7.3125 C11.24335036 7.01788768 5.8758353 4.59745019 0 1 C0 0.67 0 0.34 0 0 Z " fill="#C678D5" transform="translate(239,375)"/>
<path d="M0 0 C-0.61488281 0.31453125 -1.22976562 0.6290625 -1.86328125 0.953125 C-2.67152344 1.38109375 -3.47976562 1.8090625 -4.3125 2.25 C-5.11300781 2.66765625 -5.91351563 3.0853125 -6.73828125 3.515625 C-9.13190204 5.08656783 -10.43301591 6.6267037 -12 9 C-12.99 8.34 -13.98 7.68 -15 7 C-15.99 7 -16.98 7 -18 7 C-4.35827664 -2.17913832 -4.35827664 -2.17913832 0 0 Z " fill="#BD71D5" transform="translate(170,71)"/>
<path d="M0 0 C2.32217616 3.48326424 3.71673124 7.11024921 5.1875 11 C5.47302734 11.72445313 5.75855469 12.44890625 6.05273438 13.1953125 C8.11864075 18.64407774 8.11864075 18.64407774 7 22 C4.81926243 19.81926243 4.39529397 18.5826082 3.5 15.6875 C2.69930774 13.14316824 1.89211917 10.75584865 0.8125 8.3125 C-0.19106488 5.45619996 -0.13973715 3.00434863 0 0 Z " fill="#FAD6F9" transform="translate(306,280)"/>
<path d="M0 0 C0.99 0.495 0.99 0.495 2 1 C2.46806645 3.33744294 2.82669794 5.69739079 3.125 8.0625 C3.29257812 9.35285156 3.46015625 10.64320313 3.6328125 11.97265625 C3.75398438 12.97167969 3.87515625 13.97070312 4 15 C4.66 15 5.32 15 6 15 C6 17.97 6 20.94 6 24 C0.55422996 18.55422996 0.47424978 7.39175518 0 0 Z " fill="#FCDBFA" transform="translate(367,256)"/>
<path d="M0 0 C4.45297431 -0.2120464 7.87393702 0.27281084 12 2 C12.33 2.66 12.66 3.32 13 4 C15.11327425 4.90725434 15.11327425 4.90725434 17.5625 5.625 C18.38878906 5.88539063 19.21507812 6.14578125 20.06640625 6.4140625 C20.70449219 6.60742188 21.34257812 6.80078125 22 7 C17.41205726 8.48552331 14.26097582 6.79105424 10 5 C8.16738065 4.26904072 6.33404209 3.53988213 4.5 2.8125 C2.99965222 2.2091975 1.49952625 1.60534154 0 1 C0 0.67 0 0.34 0 0 Z " fill="#C57AD7" transform="translate(216,367)"/>
<path d="M0 0 C0.66 0 1.32 0 2 0 C2.02698189 1.62490954 2.04638757 3.24994633 2.0625 4.875 C2.07410156 5.77992188 2.08570313 6.68484375 2.09765625 7.6171875 C2 10 2 10 1 12 C0.72514541 14.78781084 0.55387262 17.57535455 0.37890625 20.37109375 C0 23 0 23 -2 26 C-1.03644647 8.14350797 -1.03644647 8.14350797 0 0 Z " fill="#C575D5" transform="translate(393,207)"/>
<path d="M0 0 C2.57966596 2.57966596 3.33609844 5.09307892 4.625 8.5 C5.29402344 10.24796875 5.29402344 10.24796875 5.9765625 12.03125 C7 15 7 15 7 17 C5.35 17.33 3.7 17.66 2 18 C2.226875 17.360625 2.45375 16.72125 2.6875 16.0625 C3.07800679 12.23553344 2.06036901 9.72570816 0.69140625 6.18359375 C0 4 0 4 0 0 Z " fill="#FBDAF9" transform="translate(314,302)"/>
<path d="M0 0 C2.86632944 2.86632944 3.2315668 6.29316426 4.125 10.125 C4.39763672 11.25615234 4.39763672 11.25615234 4.67578125 12.41015625 C5.12354709 14.27191946 5.56260722 16.13577253 6 18 C5.34 18.33 4.68 18.66 4 19 C2.72746564 15.35206816 1.67170806 11.8063457 1 8 C0.34 8 -0.32 8 -1 8 C-0.67 5.36 -0.34 2.72 0 0 Z " fill="#FCDBFA" transform="translate(171,232)"/>
<path d="M0 0 C5 5 5 5 7.25 7.625 C10.8421568 10.72731723 14.47173127 11.78654237 19 13 C19 13.33 19 13.66 19 14 C13.95537466 14.35807361 10.33737326 14.09652859 6.33203125 10.8125 C0 3.88652623 0 3.88652623 0 0 Z " fill="#FBD5FC" transform="translate(335,350)"/>
<path d="M0 0 C0.5625 1.9375 0.5625 1.9375 1 4 C0.67 4.33 0.34 4.66 0 5 C-0.04092937 7.33297433 -0.04241723 9.66705225 0 12 C-0.639375 12.12375 -1.27875 12.2475 -1.9375 12.375 C-2.618125 12.58125 -3.29875 12.7875 -4 13 C-4.33 13.66 -4.66 14.32 -5 15 C-4.5188509 9.22621075 -2.81532819 5.04140164 0 0 Z " fill="#C070D6" transform="translate(405,129)"/>
<path d="M0 0 C1.4049404 3.89060419 0.69513239 7.23092362 0.0625 11.25 C-0.13214844 12.51328125 -0.32679688 13.7765625 -0.52734375 15.078125 C-0.68332031 16.04234375 -0.83929688 17.0065625 -1 18 C-1.33 17.34 -1.66 16.68 -2 16 C-2.66 16 -3.32 16 -4 16 C-4.125 13.625 -4.125 13.625 -4 11 C-3.34 10.34 -2.68 9.68 -2 9 C-1.57862715 7.06008596 -1.57862715 7.06008596 -1.4375 4.9375 C-1 1 -1 1 0 0 Z " fill="#C878D6" transform="translate(272,336)"/>
<path d="M0 0 C0.33 0 0.66 0 1 0 C1.66 4.95 2.32 9.9 3 15 C2.01 14.67 1.02 14.34 0 14 C0 11.69 0 9.38 0 7 C-0.66 6.67 -1.32 6.34 -2 6 C-1.34 4.02 -0.68 2.04 0 0 Z " fill="#C270D9" transform="translate(236,185)"/>
<path d="M0 0 C0.66 0 1.32 0 2 0 C1.67 7.92 1.34 15.84 1 24 C0.67 24 0.34 24 0 24 C-0.19632025 20.3754207 -0.38055978 16.75032733 -0.5625 13.125 C-0.64661133 11.57619141 -0.64661133 11.57619141 -0.73242188 9.99609375 C-0.78076172 9.00996094 -0.82910156 8.02382812 -0.87890625 7.0078125 C-0.9260376 6.09660645 -0.97316895 5.18540039 -1.02172852 4.24658203 C-1 2 -1 2 0 0 Z " fill="#BC75D0" transform="translate(417,188)"/>
<path d="M0 0 C2.39105598 2.14926381 3.63278854 3.99036913 4.75 7 C5.01296875 7.680625 5.2759375 8.36125 5.546875 9.0625 C6 11 6 11 5 14 C2 8.25 2 8.25 2 6 C1.01 5.67 0.02 5.34 -1 5 C-0.67 3.35 -0.34 1.7 0 0 Z " fill="#FCDDFA" transform="translate(321,322)"/>
<path d="M0 0 C2 1 2 1 3.125 4 C4.27521462 8.32229088 4.18124209 12.55956873 4 17 C3.67 17 3.34 17 3 17 C2.49453964 14.91798472 1.99583165 12.83432933 1.5 10.75 C1.2215625 9.58984375 0.943125 8.4296875 0.65625 7.234375 C0 4 0 4 0 0 Z " fill="#FBDBFB" transform="translate(363,239)"/>
<path d="M0 0 C0.33 0 0.66 0 1 0 C1.53160457 2.41474617 2.05054766 4.83108107 2.5625 7.25 C2.71396484 7.93191406 2.86542969 8.61382812 3.02148438 9.31640625 C3.75233495 12.81769038 4.32203546 15.60298173 3 19 C0.6969113 12.43345544 -0.33693273 6.96327638 0 0 Z " fill="#C77BD6" transform="translate(244,221)"/>
<path d="M0 0 C2.00993705 3.01490557 2.72623341 5.2149927 3.625 8.6875 C3.88539063 9.68136719 4.14578125 10.67523438 4.4140625 11.69921875 C4.60742188 12.45847656 4.80078125 13.21773437 5 14 C4.01 14.495 4.01 14.495 3 15 C2.34 12.69 1.68 10.38 1 8 C0.67 8 0.34 8 0 8 C0 5.36 0 2.72 0 0 Z " fill="#C57CD8" transform="translate(357,223)"/>
<path d="M0 0 C-0.52537724 5.0302076 -1.10594786 10.01885239 -2 15 C-2.33 15 -2.66 15 -3 15 C-3.24900646 13.06494977 -3.47356242 11.12674066 -3.6875 9.1875 C-3.81511719 8.10855469 -3.94273437 7.02960938 -4.07421875 5.91796875 C-4 3 -4 3 -2.58203125 1.11328125 C-1 0 -1 0 0 0 Z " fill="#C274D8" transform="translate(415,230)"/>
<path d="M0 0 C3.2645028 3.2645028 3.93236055 7.41047299 4.125 11.9375 C4.08375 12.618125 4.0425 13.29875 4 14 C0.68518684 10.68518684 0.02786228 7.84979946 -0.125 3.1875 C-0.063125 1.6096875 -0.063125 1.6096875 0 0 Z " fill="#FDDCFC" transform="translate(165,212)"/>
<path d="M0 0 C0.66 0 1.32 0 2 0 C2.103125 1.0725 2.20625 2.145 2.3125 3.25 C2.97400493 6.85820872 3.57483421 8.36395023 6 11 C5.67 11.66 5.34 12.32 5 13 C1.44992282 9.0949151 0.18180084 6.02265357 -1 1 C-0.67 0.67 -0.34 0.34 0 0 Z " fill="#C079D3" transform="translate(210,354)"/>
<path d="M0 0 C0.99 0.33 1.98 0.66 3 1 C2.67 3.97 2.34 6.94 2 10 C0 8 0 8 -0.1953125 6.0546875 C-0.13020833 4.03645833 -0.06510417 2.01822917 0 0 Z M3 3 C5 4 5 4 5 4 Z " fill="#C06ED8" transform="translate(155,153)"/>
<path d="M0 0 C0.66 0.99 1.32 1.98 2 3 C1.5390625 5.26171875 1.5390625 5.26171875 0.625 7.6875 C0.18027344 8.89986328 0.18027344 8.89986328 -0.2734375 10.13671875 C-0.51320313 10.75160156 -0.75296875 11.36648437 -1 12 C-1.93423645 8.98968256 -2.04449911 8.13349732 -1 5 C-1.66 4.67 -2.32 4.34 -3 4 C-2.34 3.67 -1.68 3.34 -1 3 C-0.67 2.01 -0.34 1.02 0 0 Z " fill="#C27CD1" transform="translate(284,188)"/>
<path d="M0 0 C1.76462683 3.08809695 2 4.23312136 2 8 C0.68 8 -0.64 8 -2 8 C-1.34 5.36 -0.68 2.72 0 0 Z " fill="#BE72D4" transform="translate(234,177)"/>
<path d="M0 0 C-0.66 1.32 -1.32 2.64 -2 4 C-4.31 4 -6.62 4 -9 4 C-3 0 -3 0 0 0 Z " fill="#FCD9FB" transform="translate(389,362)"/>
<path d="M0 0 C1.85776765 3.13498292 2.20140476 5.37471432 2 9 C1.67 8.34 1.34 7.68 1 7 C0.34 7 -0.32 7 -1 7 C-1.04254356 5.00045254 -1.04080783 2.99958364 -1 1 C-0.67 0.67 -0.34 0.34 0 0 Z " fill="#F9D9F4" transform="translate(195,316)"/>
<path d="M0 0 C0.66 0.33 1.32 0.66 2 1 C0.37660195 2.70884005 -1.29319053 4.37446717 -3 6 C-3.66 6 -4.32 6 -5 6 C-4.1875 3.5625 -4.1875 3.5625 -3 1 C-2.01 0.67 -1.02 0.34 0 0 Z " fill="#C073D6" transform="translate(290,182)"/>
</svg>
